#!OML:ASF F:\VICON\USERDATA\INSTALL\rory3\rory3.ASF
:FULLY-SPECIFIED
:DEGREES
41
root 0.20780890525135942 17.87368620039983 10.557086817374083 0.683796440606383 -4.170350338176485 -7.3495596317528795
lfemur -26.22178170485823 -7.305074857536706 -8.911993097690814
ltibia 10.158763633212384
lfoot -0.2696886996883068 -5.92727977223921
ltoes -16.185822009715952
rfemur 13.19403045370867 6.484235648750873 34.25729359553059
rtibia 23.51859132527019
rfoot -18.60498392989446 -2.905691687000851
rtoes -1.7942558952282779
lowerback nan 1.9996597669324259 7.589055077798885
upperback -0.21022704961280803 3.6252685478045086 1.676284993169224
thorax -5.156117023393206 1.6529322629953782 -2.7305836121365523
lowerneck -16.637285071644545 -3.1376415873366943 -1.1418769868919862
upperneck 21.1754804292077 -4.072472593196576 -0.2190751014145157
head 9.42101513388079 -2.0196600824046023 -0.39543460603377134
lclavicle 8.180086911593554e-16 -9.575860292620875e-16
lhumerus -38.26666247393135 15.827778191038478 76.79651781364625
lradius 16.576888328481964
lwrist -1.3157521978494362
lhand -26.782896928505743 23.530656831300725
lfingers nan
lthumb -0.30968955003794263 53.26097056914281
rclavicle -5.66837476777124e-16 -1.948073174686025e-15
rhumerus -19.38672797760235 -8.273347139338618 -82.81362583011119
rradius 32.342227074784844
rwrist -3.5032934408447804
rhand -18.631948734982483 nan
rfingers nan
rthumb 7.74559096513065 -5.921465276515909
42
root 0.2700388224149903 17.790865418661255 11.330151059903052 0.09984280878651708 -4.228319100844061 -6.7839379848041546
lfemur -26.91154001149245 -4.316998944898314 -11.164020176867698
ltibia 13.886243900835762
lfoot -1.802189798795835 -3.8461051174380314
ltoes -13.464009429852236
rfemur 13.728311331360974 6.608645687994107 33.41826594694342
rtibia 28.163468431147386
rfoot -16.377483718418905 -1.5312704381882112
rtoes -3.375508179215341
lowerback nan 2.0603417029793 7.174237619969237
upperback -0.21835658637522293 3.5709793876671467 1.5294398748322655
thorax -5.152609350122296 1.6536433476273262 -2.578781515515126
lowerneck -16.617003706912403 -3.201461667048877 -1.193613691988358
upperneck 21.17243511589412 -4.203369114785845 -0.03444055957624603
head 9.432169951509445 -2.0547324763514374 -0.3636842265566331
lclavicle 8.250469825188358e-16 -7.81705107696253e-16
lhumerus -38.60375978281077 16.83387163314194 76.01330225267992
lradius 15.535509633447669
lwrist -2.9915928284793676
lhand -26.466156562736497 24.11086826076576
lfingers nan
lthumb 0.1804376572498263 54.31219583628428
rclavicle -5.586845152199747e-16 -1.7304323595620916e-15
rhumerus -19.81795020560424 -9.210895712804355 -82.68870677678275
rradius 32.29357234137795
rwrist -3.581391657493228
rhand -18.58391310968171 nan
rfingers nan
rthumb 7.766053219734199 -5.958142319742683
43
root 0.3540516890560269 17.774126916924722 12.257653226363386 -0.9697991173479572 -3.967596016422487 -5.807038715353444
lfemur -27.610796215421345 -3.0764169192916633 -13.785976059467437
ltibia 19.524575806303744
lfoot -3.677502209082857 -4.4602908402674775
ltoes -8.108084708987377
rfemur 13.093446389272053 6.0656652725042015 31.875252336369734
rtibia 34.49933141188907
rfoot -11.679246587013061 0.2597985395741418
rtoes -3.359125014802939
lowerback nan 2.073298605336321 6.389308237320695
upperback -0.20105685929126504 3.471972838802383 1.3373680396597065
thorax -5.161916891206827 1.633636970416584 -2.342229806860489
lowerneck -16.55325943994478 -3.2701019813864995 -1.2316611724085789
upperneck 21.240172729670565 -4.34882133620355 0.18360686920476488
head 9.455467938446207 -2.096852695640245 -0.3162091796571019
lclavicle 4.099369583961008e-16 -1.125246683751867e-15
lhumerus -38.88549668041651 17.190955354023295 75.54036505152044
lradius 15.137518725722275
lwrist -3.789251321893932
lhand -26.21061606922685 24.326957018912026
lfingers nan
lthumb 0.4123310984319084 54.406043288820676
rclavicle -7.068926539600683e-16 -1.9460823316617598e-15
rhumerus -20.559395663370736 -10.453721415675865 -82.44742528958977
rradius 31.935344932504346
rwrist -3.4137172258918405
rhand -18.517714011513945 nan
rfingers nan
rthumb 7.765796081915398 -6.203628476251272
44
root 0.43240984904157986 17.802331625939686 13.182569162193003 -2.102480232727809 -3.5864022012274006 -4.405480575652698
lfemur -27.026198259401127 -3.0139904259311985 -16.388365821681496
ltibia 23.65261076439292
lfoot -2.990788960712596 -5.200909132628624
ltoes -4.604198155673935
rfemur 11.204745870996764 5.1638050966558495 29.70488869387898
rtibia 42.10687616929681
rfoot -3.7492610235774393 2.292330593197761
rtoes -0.9282432741470323
lowerback nan 2.050059649138801 5.186528127796513
upperback -0.17842875170345734 3.3028851657415883 1.0229479184481278
thorax -5.243456598716718 1.5797208505256117 -2.0296079488396153
lowerneck -16.3994594818854 -3.3483475537652216 -1.3530730397510435
upperneck 21.358611046054747 -4.504594436509753 0.42842135660943714
head 9.499726850068358 -2.1424613450854566 -0.24693768882976463
lclavicle 6.108531776476453e-16 -1.1606147635418664e-15
lhumerus -39.04575662477432 16.953577089830688 75.42731308097663
lradius 15.407804734439095
lwrist -3.255576065510313
lhand -26.022998897715606 24.49151860413891
lfingers nan
lthumb 0.6404202252479134 54.66887190961635
rclavicle -4.959247635845418e-16 -1.9887319209446368e-15
rhumerus -21.5798776985698 -11.964501161930965 -82.09046140810801
rradius 31.440354446777615
rwrist -3.0776830491023466
rhand -18.456764004698407 nan
rfingers nan
rthumb 7.762246158853354 -6.499387777590578
